<svg fill="none" height="512" viewBox="0 0 36 36" width="512" xmlns="http://www.w3.org/2000/svg"><g id="36 Multicolor / Flag / mc_36_flag_germany"><g id="mc_36_flag_Germany"><path id="Path" d="m1.12 24.26c2.543 6.855 9.14 11.74 16.88 11.74s14.337-4.885 16.88-11.74l-16.88-1.564z" fill="#ffda44"/><path id="Path_2" d="m18 0c-7.74 0-14.337 4.885-16.88 11.74l16.88 1.564 16.88-1.565c-2.543-6.854-9.14-11.739-16.88-11.739z" fill="#3d3d3d"/><path id="Path_3" d="m1.12001 11.74c-.742734 2.0034-1.12201193 4.1233-1.12000108 6.26-.00212985 2.137.37715008 4.2573 1.12000108 6.261h33.75999c.7429-2.0037 1.1221-4.124 1.12-6.261.0021-2.137-.3771-4.2572-1.12-6.261h-33.75999z" fill="#d80027"/></g></g></svg>